# 3ds Max Wavefront OBJ Exporter v0.99 - (c)2007 guruware
# File Created: 25.03.2023 19:49:14

#
# object Cylinder001
#

v  0.0000 0.0000 -0.0000
v  0.2932 0.0000 -0.0000
v  0.2539 0.0000 -0.1466
v  0.1466 0.0000 -0.2539
v  -0.0000 0.0000 -0.2932
v  -0.1466 0.0000 -0.2539
v  -0.2539 0.0000 -0.1466
v  -0.2932 0.0000 -0.0000
v  -0.2539 0.0000 0.1466
v  -0.1466 0.0000 0.2539
v  -0.0000 0.0000 0.2932
v  0.1466 0.0000 0.2539
v  0.2539 0.0000 0.1466
v  0.2932 1.0000 -0.0000
v  0.2539 1.0000 -0.1466
v  0.1466 1.0000 -0.2539
v  -0.0000 1.0000 -0.2932
v  -0.1466 1.0000 -0.2539
v  -0.2539 1.0000 -0.1466
v  -0.2932 1.0000 -0.0000
v  -0.2539 1.0000 0.1466
v  -0.1466 1.0000 0.2539
v  -0.0000 1.0000 0.2932
v  0.1466 1.0000 0.2539
v  0.2539 1.0000 0.1466
v  0.0000 1.0000 -0.0000
# 26 vertices

vn 0.0000 -1.0000 -0.0000
vn 0.3786 -0.6532 -0.6557
vn 0.6557 -0.6532 -0.3786
vn 0.7572 -0.6532 0.0000
vn 0.0000 -1.0000 -0.0000
vn -0.3785 -0.6533 -0.6557
vn -0.0000 -0.6532 -0.7572
vn 0.3786 -0.6532 -0.6557
vn 0.0000 -1.0000 -0.0000
vn -0.7572 -0.6532 -0.0000
vn -0.6557 -0.6533 -0.3785
vn -0.3785 -0.6533 -0.6557
vn 0.0000 -1.0000 -0.0000
vn -0.3786 -0.6532 0.6557
vn -0.6557 -0.6532 0.3786
vn -0.7572 -0.6532 -0.0000
vn 0.0000 -1.0000 -0.0000
vn 0.3786 -0.6532 0.6557
vn -0.0000 -0.6532 0.7572
vn -0.3786 -0.6532 0.6557
vn 0.0000 -1.0000 -0.0000
vn 0.7572 -0.6532 0.0000
vn 0.6557 -0.6532 0.3786
vn 0.3786 -0.6532 0.6557
vn 0.7572 -0.6532 0.0000
vn 0.6557 -0.6532 -0.3786
vn 0.6557 0.6532 -0.3786
vn 0.7572 0.6532 0.0000
vn 0.6557 -0.6532 -0.3786
vn 0.3786 -0.6532 -0.6557
vn 0.3786 0.6532 -0.6557
vn 0.6557 0.6532 -0.3786
vn 0.3786 -0.6532 -0.6557
vn -0.0000 -0.6532 -0.7572
vn -0.0000 0.6532 -0.7572
vn 0.3786 0.6532 -0.6557
vn -0.0000 -0.6532 -0.7572
vn -0.3785 -0.6533 -0.6557
vn -0.3785 0.6533 -0.6557
vn -0.0000 0.6532 -0.7572
vn -0.3785 -0.6533 -0.6557
vn -0.6557 -0.6533 -0.3785
vn -0.6557 0.6533 -0.3785
vn -0.3785 0.6533 -0.6557
vn -0.6557 -0.6533 -0.3785
vn -0.7572 -0.6532 -0.0000
vn -0.7572 0.6532 -0.0000
vn -0.6557 0.6533 -0.3785
vn -0.7572 -0.6532 -0.0000
vn -0.6557 -0.6532 0.3786
vn -0.6557 0.6532 0.3786
vn -0.7572 0.6532 -0.0000
vn -0.6557 -0.6532 0.3786
vn -0.3786 -0.6532 0.6557
vn -0.3786 0.6532 0.6557
vn -0.6557 0.6532 0.3786
vn -0.3786 -0.6532 0.6557
vn -0.0000 -0.6532 0.7572
vn -0.0000 0.6532 0.7572
vn -0.3786 0.6532 0.6557
vn -0.0000 -0.6532 0.7572
vn 0.3786 -0.6532 0.6557
vn 0.3786 0.6532 0.6557
vn -0.0000 0.6532 0.7572
vn 0.3786 -0.6532 0.6557
vn 0.6557 -0.6532 0.3786
vn 0.6557 0.6532 0.3786
vn 0.3786 0.6532 0.6557
vn 0.6557 -0.6532 0.3786
vn 0.7572 -0.6532 0.0000
vn 0.7572 0.6532 0.0000
vn 0.6557 0.6532 0.3786
vn 0.0000 1.0000 -0.0000
vn 0.6557 0.6532 0.3786
vn 0.7572 0.6532 0.0000
vn 0.6557 0.6532 -0.3786
vn 0.0000 1.0000 -0.0000
vn 0.6557 0.6532 -0.3786
vn 0.3786 0.6532 -0.6557
vn -0.0000 0.6532 -0.7572
vn 0.0000 1.0000 -0.0000
vn -0.0000 0.6532 -0.7572
vn -0.3785 0.6533 -0.6557
vn -0.6557 0.6533 -0.3785
vn 0.0000 1.0000 -0.0000
vn -0.6557 0.6533 -0.3785
vn -0.7572 0.6532 -0.0000
vn -0.6557 0.6532 0.3786
vn 0.0000 1.0000 -0.0000
vn -0.6557 0.6532 0.3786
vn -0.3786 0.6532 0.6557
vn -0.0000 0.6532 0.7572
vn 0.0000 1.0000 -0.0000
vn -0.0000 0.6532 0.7572
vn 0.3786 0.6532 0.6557
vn 0.6557 0.6532 0.3786
# 96 vertex normals

vt 0.5000 0.0000 0.0000
vt 0.7500 0.0000 1.0000
vt 0.8333 0.0000 1.0000
vt 0.9167 0.0000 1.0000
vt 0.0000 0.0000 1.0000
vt 0.0833 0.0000 1.0000
vt 0.1667 0.0000 1.0000
vt 0.2500 0.0000 1.0000
vt 0.3333 0.0000 1.0000
vt 0.4167 0.0000 1.0000
vt 0.5000 0.0000 1.0000
vt 0.5833 0.0000 1.0000
vt 0.6667 0.0000 1.0000
vt 0.7500 1.0000 1.0000
vt 0.8333 1.0000 1.0000
vt 0.9167 1.0000 1.0000
vt 0.0000 1.0000 1.0000
vt 0.0833 1.0000 1.0000
vt 0.1667 1.0000 1.0000
vt 0.2500 1.0000 1.0000
vt 0.3333 1.0000 1.0000
vt 0.4167 1.0000 1.0000
vt 0.5000 1.0000 1.0000
vt 0.5833 1.0000 1.0000
vt 0.6667 1.0000 1.0000
vt 0.5000 1.0000 0.0000
vt -0.0833 0.0000 1.0000
vt -0.0833 0.0000 1.0000
vt -0.0833 1.0000 1.0000
vt 0.8884 1.0000 0.7321
# 30 texture coords

o Cylinder001
g Cylinder001
f 1/1/1 4/4/2 3/3/3 2/2/4 
f 1/1/5 6/6/6 5/5/7 4/27/8 
f 1/1/9 8/8/10 7/7/11 6/6/12 
f 1/1/13 10/10/14 9/9/15 8/8/16 
f 1/1/17 12/12/18 11/11/19 10/10/20 
f 1/1/21 2/2/22 13/13/23 12/12/24 
f 2/2/25 3/3/26 15/15/27 14/14/28 
f 3/3/29 4/4/30 16/16/31 15/15/32 
f 4/28/33 5/5/34 17/17/35 16/29/36 
f 5/5/37 6/6/38 18/18/39 17/17/40 
f 6/6/41 7/7/42 19/19/43 18/18/44 
f 7/7/45 8/8/46 20/20/47 19/19/48 
f 8/8/49 9/9/50 21/21/51 20/20/52 
f 9/9/53 10/10/54 22/22/55 21/21/56 
f 10/10/57 11/11/58 23/23/59 22/22/60 
f 11/11/61 12/12/62 24/24/63 23/23/64 
f 12/12/65 13/13/66 25/25/67 24/24/68 
f 13/13/69 2/2/70 14/14/71 25/25/72 
f 26/26/73 25/25/74 14/14/75 15/15/76 
f 26/26/77 15/15/78 16/16/79 17/30/80 
f 26/26/81 17/17/82 18/18/83 19/19/84 
f 26/26/85 19/19/86 20/20/87 21/21/88 
f 26/26/89 21/21/90 22/22/91 23/23/92 
f 26/26/93 23/23/94 24/24/95 25/25/96 
# 24 polygons

