# 3ds Max Wavefront OBJ Exporter v0.99 - (c)2007 guruware
# File Created: 17.03.2023 20:07:54

#
# object Plane001
#

v  -42.6215 0.0000 -42.6215
v  -42.6215 0.0000 42.6215
v  42.6215 0.0000 42.6215
v  42.6215 0.0000 -42.6215
# 4 vertices

vn 0.0000 1.0000 -0.0000
vn 0.0000 1.0000 -0.0000
vn 0.0000 1.0000 -0.0000
vn 0.0000 1.0000 -0.0000
# 4 vertex normals

vt 0.0000 1.0000 0.0000
vt 0.0000 0.0000 0.0000
vt 1.0000 0.0000 0.0000
vt 1.0000 1.0000 0.0000
# 4 texture coords

o Plane001
g Plane001
f 2/2/1 3/3/2 4/4/3 1/1/4 
# 1 polygons

